<mxfile host="app.diagrams.net" modified="2023-09-01T00:41:33.475Z" agent="Mozilla/5.0 (Windows NT 10.0; Win64; x64) AppleWebKit/537.36 (KHTML, like Gecko) Chrome/116.0.0.0 Safari/537.36" etag="6EFaWKbBaksB-EexLNxA" version="21.7.1" type="github">
  <diagram name="ページ1" id="1BAL0WbMvbXuZHFvlmKs">
    <mxGraphModel dx="1050" dy="630" grid="1" gridSize="10" guides="1" tooltips="1" connect="1" arrows="1" fold="1" page="1" pageScale="1" pageWidth="827" pageHeight="1169" math="0" shadow="0">
      <root>
        <mxCell id="0" />
        <mxCell id="1" parent="0" />
        <mxCell id="o97dp3zMtjGvJsGJU-nK-1" value="" style="shape=table;startSize=0;container=1;collapsible=0;childLayout=tableLayout;" vertex="1" parent="1">
          <mxGeometry x="160" y="190" width="694" height="348" as="geometry" />
        </mxCell>
        <mxCell id="o97dp3zMtjGvJsGJU-nK-2" value="" style="shape=tableRow;horizontal=0;startSize=0;swimlaneHead=0;swimlaneBody=0;strokeColor=inherit;top=0;left=0;bottom=0;right=0;collapsible=0;dropTarget=0;fillColor=none;points=[[0,0.5],[1,0.5]];portConstraint=eastwest;" vertex="1" parent="o97dp3zMtjGvJsGJU-nK-1">
          <mxGeometry width="694" height="39" as="geometry" />
        </mxCell>
        <mxCell id="o97dp3zMtjGvJsGJU-nK-3" value="カラム名" style="shape=partialRectangle;html=1;whiteSpace=wrap;connectable=0;strokeColor=inherit;overflow=hidden;fillColor=none;top=0;left=0;bottom=0;right=0;pointerEvents=1;" vertex="1" parent="o97dp3zMtjGvJsGJU-nK-2">
          <mxGeometry width="174" height="39" as="geometry">
            <mxRectangle width="174" height="39" as="alternateBounds" />
          </mxGeometry>
        </mxCell>
        <mxCell id="o97dp3zMtjGvJsGJU-nK-4" value="データ型" style="shape=partialRectangle;html=1;whiteSpace=wrap;connectable=0;strokeColor=inherit;overflow=hidden;fillColor=none;top=0;left=0;bottom=0;right=0;pointerEvents=1;" vertex="1" parent="o97dp3zMtjGvJsGJU-nK-2">
          <mxGeometry x="174" width="172" height="39" as="geometry">
            <mxRectangle width="172" height="39" as="alternateBounds" />
          </mxGeometry>
        </mxCell>
        <mxCell id="o97dp3zMtjGvJsGJU-nK-5" value="制約" style="shape=partialRectangle;html=1;whiteSpace=wrap;connectable=0;strokeColor=inherit;overflow=hidden;fillColor=none;top=0;left=0;bottom=0;right=0;pointerEvents=1;" vertex="1" parent="o97dp3zMtjGvJsGJU-nK-2">
          <mxGeometry x="346" width="174" height="39" as="geometry">
            <mxRectangle width="174" height="39" as="alternateBounds" />
          </mxGeometry>
        </mxCell>
        <mxCell id="o97dp3zMtjGvJsGJU-nK-31" value="備考" style="shape=partialRectangle;html=1;whiteSpace=wrap;connectable=0;strokeColor=inherit;overflow=hidden;fillColor=none;top=0;left=0;bottom=0;right=0;pointerEvents=1;" vertex="1" parent="o97dp3zMtjGvJsGJU-nK-2">
          <mxGeometry x="520" width="174" height="39" as="geometry">
            <mxRectangle width="174" height="39" as="alternateBounds" />
          </mxGeometry>
        </mxCell>
        <mxCell id="o97dp3zMtjGvJsGJU-nK-6" value="" style="shape=tableRow;horizontal=0;startSize=0;swimlaneHead=0;swimlaneBody=0;strokeColor=inherit;top=0;left=0;bottom=0;right=0;collapsible=0;dropTarget=0;fillColor=none;points=[[0,0.5],[1,0.5]];portConstraint=eastwest;" vertex="1" parent="o97dp3zMtjGvJsGJU-nK-1">
          <mxGeometry y="39" width="694" height="38" as="geometry" />
        </mxCell>
        <mxCell id="o97dp3zMtjGvJsGJU-nK-7" value="user_id" style="shape=partialRectangle;html=1;whiteSpace=wrap;connectable=0;strokeColor=inherit;overflow=hidden;fillColor=none;top=0;left=0;bottom=0;right=0;pointerEvents=1;" vertex="1" parent="o97dp3zMtjGvJsGJU-nK-6">
          <mxGeometry width="174" height="38" as="geometry">
            <mxRectangle width="174" height="38" as="alternateBounds" />
          </mxGeometry>
        </mxCell>
        <mxCell id="o97dp3zMtjGvJsGJU-nK-8" value="character varying(&lt;i&gt;16&lt;/i&gt;&lt;span style=&quot;font-family: monospace; font-size: medium; text-align: start; background-color: rgb(255, 255, 255);&quot;&gt;)&lt;/span&gt;" style="shape=partialRectangle;html=1;whiteSpace=wrap;connectable=0;strokeColor=inherit;overflow=hidden;fillColor=none;top=0;left=0;bottom=0;right=0;pointerEvents=1;" vertex="1" parent="o97dp3zMtjGvJsGJU-nK-6">
          <mxGeometry x="174" width="172" height="38" as="geometry">
            <mxRectangle width="172" height="38" as="alternateBounds" />
          </mxGeometry>
        </mxCell>
        <mxCell id="o97dp3zMtjGvJsGJU-nK-9" value="unique" style="shape=partialRectangle;html=1;whiteSpace=wrap;connectable=0;strokeColor=inherit;overflow=hidden;fillColor=none;top=0;left=0;bottom=0;right=0;pointerEvents=1;" vertex="1" parent="o97dp3zMtjGvJsGJU-nK-6">
          <mxGeometry x="346" width="174" height="38" as="geometry">
            <mxRectangle width="174" height="38" as="alternateBounds" />
          </mxGeometry>
        </mxCell>
        <mxCell id="o97dp3zMtjGvJsGJU-nK-32" value="主キー" style="shape=partialRectangle;html=1;whiteSpace=wrap;connectable=0;strokeColor=inherit;overflow=hidden;fillColor=none;top=0;left=0;bottom=0;right=0;pointerEvents=1;" vertex="1" parent="o97dp3zMtjGvJsGJU-nK-6">
          <mxGeometry x="520" width="174" height="38" as="geometry">
            <mxRectangle width="174" height="38" as="alternateBounds" />
          </mxGeometry>
        </mxCell>
        <mxCell id="o97dp3zMtjGvJsGJU-nK-10" value="" style="shape=tableRow;horizontal=0;startSize=0;swimlaneHead=0;swimlaneBody=0;strokeColor=inherit;top=0;left=0;bottom=0;right=0;collapsible=0;dropTarget=0;fillColor=none;points=[[0,0.5],[1,0.5]];portConstraint=eastwest;" vertex="1" parent="o97dp3zMtjGvJsGJU-nK-1">
          <mxGeometry y="77" width="694" height="39" as="geometry" />
        </mxCell>
        <mxCell id="o97dp3zMtjGvJsGJU-nK-11" value="name" style="shape=partialRectangle;html=1;whiteSpace=wrap;connectable=0;strokeColor=inherit;overflow=hidden;fillColor=none;top=0;left=0;bottom=0;right=0;pointerEvents=1;" vertex="1" parent="o97dp3zMtjGvJsGJU-nK-10">
          <mxGeometry width="174" height="39" as="geometry">
            <mxRectangle width="174" height="39" as="alternateBounds" />
          </mxGeometry>
        </mxCell>
        <mxCell id="o97dp3zMtjGvJsGJU-nK-12" value="text" style="shape=partialRectangle;html=1;whiteSpace=wrap;connectable=0;strokeColor=inherit;overflow=hidden;fillColor=none;top=0;left=0;bottom=0;right=0;pointerEvents=1;" vertex="1" parent="o97dp3zMtjGvJsGJU-nK-10">
          <mxGeometry x="174" width="172" height="39" as="geometry">
            <mxRectangle width="172" height="39" as="alternateBounds" />
          </mxGeometry>
        </mxCell>
        <mxCell id="o97dp3zMtjGvJsGJU-nK-13" value="NOT NULL" style="shape=partialRectangle;html=1;whiteSpace=wrap;connectable=0;strokeColor=inherit;overflow=hidden;fillColor=none;top=0;left=0;bottom=0;right=0;pointerEvents=1;" vertex="1" parent="o97dp3zMtjGvJsGJU-nK-10">
          <mxGeometry x="346" width="174" height="39" as="geometry">
            <mxRectangle width="174" height="39" as="alternateBounds" />
          </mxGeometry>
        </mxCell>
        <mxCell id="o97dp3zMtjGvJsGJU-nK-33" style="shape=partialRectangle;html=1;whiteSpace=wrap;connectable=0;strokeColor=inherit;overflow=hidden;fillColor=none;top=0;left=0;bottom=0;right=0;pointerEvents=1;" vertex="1" parent="o97dp3zMtjGvJsGJU-nK-10">
          <mxGeometry x="520" width="174" height="39" as="geometry">
            <mxRectangle width="174" height="39" as="alternateBounds" />
          </mxGeometry>
        </mxCell>
        <mxCell id="o97dp3zMtjGvJsGJU-nK-14" value="" style="shape=tableRow;horizontal=0;startSize=0;swimlaneHead=0;swimlaneBody=0;strokeColor=inherit;top=0;left=0;bottom=0;right=0;collapsible=0;dropTarget=0;fillColor=none;points=[[0,0.5],[1,0.5]];portConstraint=eastwest;" vertex="1" parent="o97dp3zMtjGvJsGJU-nK-1">
          <mxGeometry y="116" width="694" height="38" as="geometry" />
        </mxCell>
        <mxCell id="o97dp3zMtjGvJsGJU-nK-15" value="birth_day" style="shape=partialRectangle;html=1;whiteSpace=wrap;connectable=0;strokeColor=inherit;overflow=hidden;fillColor=none;top=0;left=0;bottom=0;right=0;pointerEvents=1;" vertex="1" parent="o97dp3zMtjGvJsGJU-nK-14">
          <mxGeometry width="174" height="38" as="geometry">
            <mxRectangle width="174" height="38" as="alternateBounds" />
          </mxGeometry>
        </mxCell>
        <mxCell id="o97dp3zMtjGvJsGJU-nK-16" value="date" style="shape=partialRectangle;html=1;whiteSpace=wrap;connectable=0;strokeColor=inherit;overflow=hidden;fillColor=none;top=0;left=0;bottom=0;right=0;pointerEvents=1;" vertex="1" parent="o97dp3zMtjGvJsGJU-nK-14">
          <mxGeometry x="174" width="172" height="38" as="geometry">
            <mxRectangle width="172" height="38" as="alternateBounds" />
          </mxGeometry>
        </mxCell>
        <mxCell id="o97dp3zMtjGvJsGJU-nK-17" value="" style="shape=partialRectangle;html=1;whiteSpace=wrap;connectable=0;strokeColor=inherit;overflow=hidden;fillColor=none;top=0;left=0;bottom=0;right=0;pointerEvents=1;" vertex="1" parent="o97dp3zMtjGvJsGJU-nK-14">
          <mxGeometry x="346" width="174" height="38" as="geometry">
            <mxRectangle width="174" height="38" as="alternateBounds" />
          </mxGeometry>
        </mxCell>
        <mxCell id="o97dp3zMtjGvJsGJU-nK-34" style="shape=partialRectangle;html=1;whiteSpace=wrap;connectable=0;strokeColor=inherit;overflow=hidden;fillColor=none;top=0;left=0;bottom=0;right=0;pointerEvents=1;" vertex="1" parent="o97dp3zMtjGvJsGJU-nK-14">
          <mxGeometry x="520" width="174" height="38" as="geometry">
            <mxRectangle width="174" height="38" as="alternateBounds" />
          </mxGeometry>
        </mxCell>
        <mxCell id="o97dp3zMtjGvJsGJU-nK-18" value="" style="shape=tableRow;horizontal=0;startSize=0;swimlaneHead=0;swimlaneBody=0;strokeColor=inherit;top=0;left=0;bottom=0;right=0;collapsible=0;dropTarget=0;fillColor=none;points=[[0,0.5],[1,0.5]];portConstraint=eastwest;" vertex="1" parent="o97dp3zMtjGvJsGJU-nK-1">
          <mxGeometry y="154" width="694" height="39" as="geometry" />
        </mxCell>
        <mxCell id="o97dp3zMtjGvJsGJU-nK-19" value="bio" style="shape=partialRectangle;html=1;whiteSpace=wrap;connectable=0;strokeColor=inherit;overflow=hidden;fillColor=none;top=0;left=0;bottom=0;right=0;pointerEvents=1;" vertex="1" parent="o97dp3zMtjGvJsGJU-nK-18">
          <mxGeometry width="174" height="39" as="geometry">
            <mxRectangle width="174" height="39" as="alternateBounds" />
          </mxGeometry>
        </mxCell>
        <mxCell id="o97dp3zMtjGvJsGJU-nK-20" value="character varying(100)" style="shape=partialRectangle;html=1;whiteSpace=wrap;connectable=0;strokeColor=inherit;overflow=hidden;fillColor=none;top=0;left=0;bottom=0;right=0;pointerEvents=1;" vertex="1" parent="o97dp3zMtjGvJsGJU-nK-18">
          <mxGeometry x="174" width="172" height="39" as="geometry">
            <mxRectangle width="172" height="39" as="alternateBounds" />
          </mxGeometry>
        </mxCell>
        <mxCell id="o97dp3zMtjGvJsGJU-nK-21" value="" style="shape=partialRectangle;html=1;whiteSpace=wrap;connectable=0;strokeColor=inherit;overflow=hidden;fillColor=none;top=0;left=0;bottom=0;right=0;pointerEvents=1;" vertex="1" parent="o97dp3zMtjGvJsGJU-nK-18">
          <mxGeometry x="346" width="174" height="39" as="geometry">
            <mxRectangle width="174" height="39" as="alternateBounds" />
          </mxGeometry>
        </mxCell>
        <mxCell id="o97dp3zMtjGvJsGJU-nK-35" style="shape=partialRectangle;html=1;whiteSpace=wrap;connectable=0;strokeColor=inherit;overflow=hidden;fillColor=none;top=0;left=0;bottom=0;right=0;pointerEvents=1;" vertex="1" parent="o97dp3zMtjGvJsGJU-nK-18">
          <mxGeometry x="520" width="174" height="39" as="geometry">
            <mxRectangle width="174" height="39" as="alternateBounds" />
          </mxGeometry>
        </mxCell>
        <mxCell id="o97dp3zMtjGvJsGJU-nK-22" value="" style="shape=tableRow;horizontal=0;startSize=0;swimlaneHead=0;swimlaneBody=0;strokeColor=inherit;top=0;left=0;bottom=0;right=0;collapsible=0;dropTarget=0;fillColor=none;points=[[0,0.5],[1,0.5]];portConstraint=eastwest;" vertex="1" parent="o97dp3zMtjGvJsGJU-nK-1">
          <mxGeometry y="193" width="694" height="38" as="geometry" />
        </mxCell>
        <mxCell id="o97dp3zMtjGvJsGJU-nK-23" value="following" style="shape=partialRectangle;html=1;whiteSpace=wrap;connectable=0;strokeColor=inherit;overflow=hidden;fillColor=none;top=0;left=0;bottom=0;right=0;pointerEvents=1;" vertex="1" parent="o97dp3zMtjGvJsGJU-nK-22">
          <mxGeometry width="174" height="38" as="geometry">
            <mxRectangle width="174" height="38" as="alternateBounds" />
          </mxGeometry>
        </mxCell>
        <mxCell id="o97dp3zMtjGvJsGJU-nK-24" value="integer" style="shape=partialRectangle;html=1;whiteSpace=wrap;connectable=0;strokeColor=inherit;overflow=hidden;fillColor=none;top=0;left=0;bottom=0;right=0;pointerEvents=1;" vertex="1" parent="o97dp3zMtjGvJsGJU-nK-22">
          <mxGeometry x="174" width="172" height="38" as="geometry">
            <mxRectangle width="172" height="38" as="alternateBounds" />
          </mxGeometry>
        </mxCell>
        <mxCell id="o97dp3zMtjGvJsGJU-nK-25" value="NOT NULL" style="shape=partialRectangle;html=1;whiteSpace=wrap;connectable=0;strokeColor=inherit;overflow=hidden;fillColor=none;top=0;left=0;bottom=0;right=0;pointerEvents=1;" vertex="1" parent="o97dp3zMtjGvJsGJU-nK-22">
          <mxGeometry x="346" width="174" height="38" as="geometry">
            <mxRectangle width="174" height="38" as="alternateBounds" />
          </mxGeometry>
        </mxCell>
        <mxCell id="o97dp3zMtjGvJsGJU-nK-36" value="初期値0" style="shape=partialRectangle;html=1;whiteSpace=wrap;connectable=0;strokeColor=inherit;overflow=hidden;fillColor=none;top=0;left=0;bottom=0;right=0;pointerEvents=1;" vertex="1" parent="o97dp3zMtjGvJsGJU-nK-22">
          <mxGeometry x="520" width="174" height="38" as="geometry">
            <mxRectangle width="174" height="38" as="alternateBounds" />
          </mxGeometry>
        </mxCell>
        <mxCell id="o97dp3zMtjGvJsGJU-nK-26" value="" style="shape=tableRow;horizontal=0;startSize=0;swimlaneHead=0;swimlaneBody=0;strokeColor=inherit;top=0;left=0;bottom=0;right=0;collapsible=0;dropTarget=0;fillColor=none;points=[[0,0.5],[1,0.5]];portConstraint=eastwest;" vertex="1" parent="o97dp3zMtjGvJsGJU-nK-1">
          <mxGeometry y="231" width="694" height="39" as="geometry" />
        </mxCell>
        <mxCell id="o97dp3zMtjGvJsGJU-nK-27" value="follower" style="shape=partialRectangle;html=1;whiteSpace=wrap;connectable=0;strokeColor=inherit;overflow=hidden;fillColor=none;top=0;left=0;bottom=0;right=0;pointerEvents=1;" vertex="1" parent="o97dp3zMtjGvJsGJU-nK-26">
          <mxGeometry width="174" height="39" as="geometry">
            <mxRectangle width="174" height="39" as="alternateBounds" />
          </mxGeometry>
        </mxCell>
        <mxCell id="o97dp3zMtjGvJsGJU-nK-28" value="integer" style="shape=partialRectangle;html=1;whiteSpace=wrap;connectable=0;strokeColor=inherit;overflow=hidden;fillColor=none;top=0;left=0;bottom=0;right=0;pointerEvents=1;" vertex="1" parent="o97dp3zMtjGvJsGJU-nK-26">
          <mxGeometry x="174" width="172" height="39" as="geometry">
            <mxRectangle width="172" height="39" as="alternateBounds" />
          </mxGeometry>
        </mxCell>
        <mxCell id="o97dp3zMtjGvJsGJU-nK-29" value="NOT NULL" style="shape=partialRectangle;html=1;whiteSpace=wrap;connectable=0;strokeColor=inherit;overflow=hidden;fillColor=none;top=0;left=0;bottom=0;right=0;pointerEvents=1;" vertex="1" parent="o97dp3zMtjGvJsGJU-nK-26">
          <mxGeometry x="346" width="174" height="39" as="geometry">
            <mxRectangle width="174" height="39" as="alternateBounds" />
          </mxGeometry>
        </mxCell>
        <mxCell id="o97dp3zMtjGvJsGJU-nK-37" value="初期値0" style="shape=partialRectangle;html=1;whiteSpace=wrap;connectable=0;strokeColor=inherit;overflow=hidden;fillColor=none;top=0;left=0;bottom=0;right=0;pointerEvents=1;" vertex="1" parent="o97dp3zMtjGvJsGJU-nK-26">
          <mxGeometry x="520" width="174" height="39" as="geometry">
            <mxRectangle width="174" height="39" as="alternateBounds" />
          </mxGeometry>
        </mxCell>
        <mxCell id="o97dp3zMtjGvJsGJU-nK-39" style="shape=tableRow;horizontal=0;startSize=0;swimlaneHead=0;swimlaneBody=0;strokeColor=inherit;top=0;left=0;bottom=0;right=0;collapsible=0;dropTarget=0;fillColor=none;points=[[0,0.5],[1,0.5]];portConstraint=eastwest;" vertex="1" parent="o97dp3zMtjGvJsGJU-nK-1">
          <mxGeometry y="270" width="694" height="39" as="geometry" />
        </mxCell>
        <mxCell id="o97dp3zMtjGvJsGJU-nK-40" value="icon_dir" style="shape=partialRectangle;html=1;whiteSpace=wrap;connectable=0;strokeColor=inherit;overflow=hidden;fillColor=none;top=0;left=0;bottom=0;right=0;pointerEvents=1;" vertex="1" parent="o97dp3zMtjGvJsGJU-nK-39">
          <mxGeometry width="174" height="39" as="geometry">
            <mxRectangle width="174" height="39" as="alternateBounds" />
          </mxGeometry>
        </mxCell>
        <mxCell id="o97dp3zMtjGvJsGJU-nK-41" value="text" style="shape=partialRectangle;html=1;whiteSpace=wrap;connectable=0;strokeColor=inherit;overflow=hidden;fillColor=none;top=0;left=0;bottom=0;right=0;pointerEvents=1;" vertex="1" parent="o97dp3zMtjGvJsGJU-nK-39">
          <mxGeometry x="174" width="172" height="39" as="geometry">
            <mxRectangle width="172" height="39" as="alternateBounds" />
          </mxGeometry>
        </mxCell>
        <mxCell id="o97dp3zMtjGvJsGJU-nK-42" style="shape=partialRectangle;html=1;whiteSpace=wrap;connectable=0;strokeColor=inherit;overflow=hidden;fillColor=none;top=0;left=0;bottom=0;right=0;pointerEvents=1;" vertex="1" parent="o97dp3zMtjGvJsGJU-nK-39">
          <mxGeometry x="346" width="174" height="39" as="geometry">
            <mxRectangle width="174" height="39" as="alternateBounds" />
          </mxGeometry>
        </mxCell>
        <mxCell id="o97dp3zMtjGvJsGJU-nK-43" style="shape=partialRectangle;html=1;whiteSpace=wrap;connectable=0;strokeColor=inherit;overflow=hidden;fillColor=none;top=0;left=0;bottom=0;right=0;pointerEvents=1;" vertex="1" parent="o97dp3zMtjGvJsGJU-nK-39">
          <mxGeometry x="520" width="174" height="39" as="geometry">
            <mxRectangle width="174" height="39" as="alternateBounds" />
          </mxGeometry>
        </mxCell>
        <mxCell id="o97dp3zMtjGvJsGJU-nK-44" style="shape=tableRow;horizontal=0;startSize=0;swimlaneHead=0;swimlaneBody=0;strokeColor=inherit;top=0;left=0;bottom=0;right=0;collapsible=0;dropTarget=0;fillColor=none;points=[[0,0.5],[1,0.5]];portConstraint=eastwest;" vertex="1" parent="o97dp3zMtjGvJsGJU-nK-1">
          <mxGeometry y="309" width="694" height="39" as="geometry" />
        </mxCell>
        <mxCell id="o97dp3zMtjGvJsGJU-nK-45" value="private" style="shape=partialRectangle;html=1;whiteSpace=wrap;connectable=0;strokeColor=inherit;overflow=hidden;fillColor=none;top=0;left=0;bottom=0;right=0;pointerEvents=1;" vertex="1" parent="o97dp3zMtjGvJsGJU-nK-44">
          <mxGeometry width="174" height="39" as="geometry">
            <mxRectangle width="174" height="39" as="alternateBounds" />
          </mxGeometry>
        </mxCell>
        <mxCell id="o97dp3zMtjGvJsGJU-nK-46" value="boolean" style="shape=partialRectangle;html=1;whiteSpace=wrap;connectable=0;strokeColor=inherit;overflow=hidden;fillColor=none;top=0;left=0;bottom=0;right=0;pointerEvents=1;" vertex="1" parent="o97dp3zMtjGvJsGJU-nK-44">
          <mxGeometry x="174" width="172" height="39" as="geometry">
            <mxRectangle width="172" height="39" as="alternateBounds" />
          </mxGeometry>
        </mxCell>
        <mxCell id="o97dp3zMtjGvJsGJU-nK-47" value="NOT NULL" style="shape=partialRectangle;html=1;whiteSpace=wrap;connectable=0;strokeColor=inherit;overflow=hidden;fillColor=none;top=0;left=0;bottom=0;right=0;pointerEvents=1;" vertex="1" parent="o97dp3zMtjGvJsGJU-nK-44">
          <mxGeometry x="346" width="174" height="39" as="geometry">
            <mxRectangle width="174" height="39" as="alternateBounds" />
          </mxGeometry>
        </mxCell>
        <mxCell id="o97dp3zMtjGvJsGJU-nK-48" style="shape=partialRectangle;html=1;whiteSpace=wrap;connectable=0;strokeColor=inherit;overflow=hidden;fillColor=none;top=0;left=0;bottom=0;right=0;pointerEvents=1;" vertex="1" parent="o97dp3zMtjGvJsGJU-nK-44">
          <mxGeometry x="520" width="174" height="39" as="geometry">
            <mxRectangle width="174" height="39" as="alternateBounds" />
          </mxGeometry>
        </mxCell>
        <mxCell id="o97dp3zMtjGvJsGJU-nK-30" value="&lt;h1&gt;users&lt;/h1&gt;" style="text;strokeColor=none;align=center;fillColor=none;html=1;verticalAlign=middle;whiteSpace=wrap;rounded=0;" vertex="1" parent="1">
          <mxGeometry x="50" y="150" width="220" height="30" as="geometry" />
        </mxCell>
        <mxCell id="o97dp3zMtjGvJsGJU-nK-49" value="" style="shape=table;startSize=0;container=1;collapsible=0;childLayout=tableLayout;" vertex="1" parent="1">
          <mxGeometry x="160" y="660" width="690" height="120" as="geometry" />
        </mxCell>
        <mxCell id="o97dp3zMtjGvJsGJU-nK-50" value="" style="shape=tableRow;horizontal=0;startSize=0;swimlaneHead=0;swimlaneBody=0;strokeColor=inherit;top=0;left=0;bottom=0;right=0;collapsible=0;dropTarget=0;fillColor=none;points=[[0,0.5],[1,0.5]];portConstraint=eastwest;" vertex="1" parent="o97dp3zMtjGvJsGJU-nK-49">
          <mxGeometry width="690" height="40" as="geometry" />
        </mxCell>
        <mxCell id="o97dp3zMtjGvJsGJU-nK-51" value="カラム名" style="shape=partialRectangle;html=1;whiteSpace=wrap;connectable=0;strokeColor=inherit;overflow=hidden;fillColor=none;top=0;left=0;bottom=0;right=0;pointerEvents=1;" vertex="1" parent="o97dp3zMtjGvJsGJU-nK-50">
          <mxGeometry width="173" height="40" as="geometry">
            <mxRectangle width="173" height="40" as="alternateBounds" />
          </mxGeometry>
        </mxCell>
        <mxCell id="o97dp3zMtjGvJsGJU-nK-52" value="データ型" style="shape=partialRectangle;html=1;whiteSpace=wrap;connectable=0;strokeColor=inherit;overflow=hidden;fillColor=none;top=0;left=0;bottom=0;right=0;pointerEvents=1;" vertex="1" parent="o97dp3zMtjGvJsGJU-nK-50">
          <mxGeometry x="173" width="172" height="40" as="geometry">
            <mxRectangle width="172" height="40" as="alternateBounds" />
          </mxGeometry>
        </mxCell>
        <mxCell id="o97dp3zMtjGvJsGJU-nK-53" value="制約" style="shape=partialRectangle;html=1;whiteSpace=wrap;connectable=0;strokeColor=inherit;overflow=hidden;fillColor=none;top=0;left=0;bottom=0;right=0;pointerEvents=1;" vertex="1" parent="o97dp3zMtjGvJsGJU-nK-50">
          <mxGeometry x="345" width="173" height="40" as="geometry">
            <mxRectangle width="173" height="40" as="alternateBounds" />
          </mxGeometry>
        </mxCell>
        <mxCell id="o97dp3zMtjGvJsGJU-nK-54" value="備考" style="shape=partialRectangle;html=1;whiteSpace=wrap;connectable=0;strokeColor=inherit;overflow=hidden;fillColor=none;top=0;left=0;bottom=0;right=0;pointerEvents=1;" vertex="1" parent="o97dp3zMtjGvJsGJU-nK-50">
          <mxGeometry x="518" width="172" height="40" as="geometry">
            <mxRectangle width="172" height="40" as="alternateBounds" />
          </mxGeometry>
        </mxCell>
        <mxCell id="o97dp3zMtjGvJsGJU-nK-55" value="" style="shape=tableRow;horizontal=0;startSize=0;swimlaneHead=0;swimlaneBody=0;strokeColor=inherit;top=0;left=0;bottom=0;right=0;collapsible=0;dropTarget=0;fillColor=none;points=[[0,0.5],[1,0.5]];portConstraint=eastwest;" vertex="1" parent="o97dp3zMtjGvJsGJU-nK-49">
          <mxGeometry y="40" width="690" height="40" as="geometry" />
        </mxCell>
        <mxCell id="o97dp3zMtjGvJsGJU-nK-56" value="user_id" style="shape=partialRectangle;html=1;whiteSpace=wrap;connectable=0;strokeColor=inherit;overflow=hidden;fillColor=none;top=0;left=0;bottom=0;right=0;pointerEvents=1;" vertex="1" parent="o97dp3zMtjGvJsGJU-nK-55">
          <mxGeometry width="173" height="40" as="geometry">
            <mxRectangle width="173" height="40" as="alternateBounds" />
          </mxGeometry>
        </mxCell>
        <mxCell id="o97dp3zMtjGvJsGJU-nK-57" value="character varying(&lt;i style=&quot;border-color: var(--border-color);&quot;&gt;16&lt;/i&gt;)" style="shape=partialRectangle;html=1;whiteSpace=wrap;connectable=0;strokeColor=inherit;overflow=hidden;fillColor=none;top=0;left=0;bottom=0;right=0;pointerEvents=1;" vertex="1" parent="o97dp3zMtjGvJsGJU-nK-55">
          <mxGeometry x="173" width="172" height="40" as="geometry">
            <mxRectangle width="172" height="40" as="alternateBounds" />
          </mxGeometry>
        </mxCell>
        <mxCell id="o97dp3zMtjGvJsGJU-nK-58" value="NOT NULL" style="shape=partialRectangle;html=1;whiteSpace=wrap;connectable=0;strokeColor=inherit;overflow=hidden;fillColor=none;top=0;left=0;bottom=0;right=0;pointerEvents=1;" vertex="1" parent="o97dp3zMtjGvJsGJU-nK-55">
          <mxGeometry x="345" width="173" height="40" as="geometry">
            <mxRectangle width="173" height="40" as="alternateBounds" />
          </mxGeometry>
        </mxCell>
        <mxCell id="o97dp3zMtjGvJsGJU-nK-59" value="FK" style="shape=partialRectangle;html=1;whiteSpace=wrap;connectable=0;strokeColor=inherit;overflow=hidden;fillColor=none;top=0;left=0;bottom=0;right=0;pointerEvents=1;" vertex="1" parent="o97dp3zMtjGvJsGJU-nK-55">
          <mxGeometry x="518" width="172" height="40" as="geometry">
            <mxRectangle width="172" height="40" as="alternateBounds" />
          </mxGeometry>
        </mxCell>
        <mxCell id="o97dp3zMtjGvJsGJU-nK-60" value="" style="shape=tableRow;horizontal=0;startSize=0;swimlaneHead=0;swimlaneBody=0;strokeColor=inherit;top=0;left=0;bottom=0;right=0;collapsible=0;dropTarget=0;fillColor=none;points=[[0,0.5],[1,0.5]];portConstraint=eastwest;" vertex="1" parent="o97dp3zMtjGvJsGJU-nK-49">
          <mxGeometry y="80" width="690" height="40" as="geometry" />
        </mxCell>
        <mxCell id="o97dp3zMtjGvJsGJU-nK-61" value="following_id" style="shape=partialRectangle;html=1;whiteSpace=wrap;connectable=0;strokeColor=inherit;overflow=hidden;fillColor=none;top=0;left=0;bottom=0;right=0;pointerEvents=1;" vertex="1" parent="o97dp3zMtjGvJsGJU-nK-60">
          <mxGeometry width="173" height="40" as="geometry">
            <mxRectangle width="173" height="40" as="alternateBounds" />
          </mxGeometry>
        </mxCell>
        <mxCell id="o97dp3zMtjGvJsGJU-nK-62" value="character varying(&lt;i style=&quot;border-color: var(--border-color);&quot;&gt;16&lt;/i&gt;)" style="shape=partialRectangle;html=1;whiteSpace=wrap;connectable=0;strokeColor=inherit;overflow=hidden;fillColor=none;top=0;left=0;bottom=0;right=0;pointerEvents=1;" vertex="1" parent="o97dp3zMtjGvJsGJU-nK-60">
          <mxGeometry x="173" width="172" height="40" as="geometry">
            <mxRectangle width="172" height="40" as="alternateBounds" />
          </mxGeometry>
        </mxCell>
        <mxCell id="o97dp3zMtjGvJsGJU-nK-63" value="NOT NULL" style="shape=partialRectangle;html=1;whiteSpace=wrap;connectable=0;strokeColor=inherit;overflow=hidden;fillColor=none;top=0;left=0;bottom=0;right=0;pointerEvents=1;" vertex="1" parent="o97dp3zMtjGvJsGJU-nK-60">
          <mxGeometry x="345" width="173" height="40" as="geometry">
            <mxRectangle width="173" height="40" as="alternateBounds" />
          </mxGeometry>
        </mxCell>
        <mxCell id="o97dp3zMtjGvJsGJU-nK-64" value="FK" style="shape=partialRectangle;html=1;whiteSpace=wrap;connectable=0;strokeColor=inherit;overflow=hidden;fillColor=none;top=0;left=0;bottom=0;right=0;pointerEvents=1;" vertex="1" parent="o97dp3zMtjGvJsGJU-nK-60">
          <mxGeometry x="518" width="172" height="40" as="geometry">
            <mxRectangle width="172" height="40" as="alternateBounds" />
          </mxGeometry>
        </mxCell>
        <mxCell id="o97dp3zMtjGvJsGJU-nK-65" value="&lt;h1&gt;relations&lt;/h1&gt;" style="text;strokeColor=none;align=center;fillColor=none;html=1;verticalAlign=middle;whiteSpace=wrap;rounded=0;" vertex="1" parent="1">
          <mxGeometry x="110" y="600" width="100" height="30" as="geometry" />
        </mxCell>
        <mxCell id="o97dp3zMtjGvJsGJU-nK-93" value="" style="shape=table;startSize=0;container=1;collapsible=0;childLayout=tableLayout;" vertex="1" parent="1">
          <mxGeometry x="160" y="920" width="690" height="180" as="geometry" />
        </mxCell>
        <mxCell id="o97dp3zMtjGvJsGJU-nK-94" value="" style="shape=tableRow;horizontal=0;startSize=0;swimlaneHead=0;swimlaneBody=0;strokeColor=inherit;top=0;left=0;bottom=0;right=0;collapsible=0;dropTarget=0;fillColor=none;points=[[0,0.5],[1,0.5]];portConstraint=eastwest;" vertex="1" parent="o97dp3zMtjGvJsGJU-nK-93">
          <mxGeometry width="690" height="20" as="geometry" />
        </mxCell>
        <mxCell id="o97dp3zMtjGvJsGJU-nK-95" value="カラム名" style="shape=partialRectangle;html=1;whiteSpace=wrap;connectable=0;strokeColor=inherit;overflow=hidden;fillColor=none;top=0;left=0;bottom=0;right=0;pointerEvents=1;" vertex="1" parent="o97dp3zMtjGvJsGJU-nK-94">
          <mxGeometry width="173" height="20" as="geometry">
            <mxRectangle width="173" height="20" as="alternateBounds" />
          </mxGeometry>
        </mxCell>
        <mxCell id="o97dp3zMtjGvJsGJU-nK-96" value="データ型" style="shape=partialRectangle;html=1;whiteSpace=wrap;connectable=0;strokeColor=inherit;overflow=hidden;fillColor=none;top=0;left=0;bottom=0;right=0;pointerEvents=1;" vertex="1" parent="o97dp3zMtjGvJsGJU-nK-94">
          <mxGeometry x="173" width="172" height="20" as="geometry">
            <mxRectangle width="172" height="20" as="alternateBounds" />
          </mxGeometry>
        </mxCell>
        <mxCell id="o97dp3zMtjGvJsGJU-nK-97" value="制約" style="shape=partialRectangle;html=1;whiteSpace=wrap;connectable=0;strokeColor=inherit;overflow=hidden;fillColor=none;top=0;left=0;bottom=0;right=0;pointerEvents=1;" vertex="1" parent="o97dp3zMtjGvJsGJU-nK-94">
          <mxGeometry x="345" width="173" height="20" as="geometry">
            <mxRectangle width="173" height="20" as="alternateBounds" />
          </mxGeometry>
        </mxCell>
        <mxCell id="o97dp3zMtjGvJsGJU-nK-98" value="備考" style="shape=partialRectangle;html=1;whiteSpace=wrap;connectable=0;strokeColor=inherit;overflow=hidden;fillColor=none;top=0;left=0;bottom=0;right=0;pointerEvents=1;" vertex="1" parent="o97dp3zMtjGvJsGJU-nK-94">
          <mxGeometry x="518" width="172" height="20" as="geometry">
            <mxRectangle width="172" height="20" as="alternateBounds" />
          </mxGeometry>
        </mxCell>
        <mxCell id="o97dp3zMtjGvJsGJU-nK-109" style="shape=tableRow;horizontal=0;startSize=0;swimlaneHead=0;swimlaneBody=0;strokeColor=inherit;top=0;left=0;bottom=0;right=0;collapsible=0;dropTarget=0;fillColor=none;points=[[0,0.5],[1,0.5]];portConstraint=eastwest;" vertex="1" parent="o97dp3zMtjGvJsGJU-nK-93">
          <mxGeometry y="20" width="690" height="40" as="geometry" />
        </mxCell>
        <mxCell id="o97dp3zMtjGvJsGJU-nK-110" value="message_id" style="shape=partialRectangle;html=1;whiteSpace=wrap;connectable=0;strokeColor=inherit;overflow=hidden;fillColor=none;top=0;left=0;bottom=0;right=0;pointerEvents=1;" vertex="1" parent="o97dp3zMtjGvJsGJU-nK-109">
          <mxGeometry width="173" height="40" as="geometry">
            <mxRectangle width="173" height="40" as="alternateBounds" />
          </mxGeometry>
        </mxCell>
        <mxCell id="o97dp3zMtjGvJsGJU-nK-111" value="uuid" style="shape=partialRectangle;html=1;whiteSpace=wrap;connectable=0;strokeColor=inherit;overflow=hidden;fillColor=none;top=0;left=0;bottom=0;right=0;pointerEvents=1;" vertex="1" parent="o97dp3zMtjGvJsGJU-nK-109">
          <mxGeometry x="173" width="172" height="40" as="geometry">
            <mxRectangle width="172" height="40" as="alternateBounds" />
          </mxGeometry>
        </mxCell>
        <mxCell id="o97dp3zMtjGvJsGJU-nK-112" style="shape=partialRectangle;html=1;whiteSpace=wrap;connectable=0;strokeColor=inherit;overflow=hidden;fillColor=none;top=0;left=0;bottom=0;right=0;pointerEvents=1;" vertex="1" parent="o97dp3zMtjGvJsGJU-nK-109">
          <mxGeometry x="345" width="173" height="40" as="geometry">
            <mxRectangle width="173" height="40" as="alternateBounds" />
          </mxGeometry>
        </mxCell>
        <mxCell id="o97dp3zMtjGvJsGJU-nK-113" style="shape=partialRectangle;html=1;whiteSpace=wrap;connectable=0;strokeColor=inherit;overflow=hidden;fillColor=none;top=0;left=0;bottom=0;right=0;pointerEvents=1;" vertex="1" parent="o97dp3zMtjGvJsGJU-nK-109">
          <mxGeometry x="518" width="172" height="40" as="geometry">
            <mxRectangle width="172" height="40" as="alternateBounds" />
          </mxGeometry>
        </mxCell>
        <mxCell id="o97dp3zMtjGvJsGJU-nK-99" value="" style="shape=tableRow;horizontal=0;startSize=0;swimlaneHead=0;swimlaneBody=0;strokeColor=inherit;top=0;left=0;bottom=0;right=0;collapsible=0;dropTarget=0;fillColor=none;points=[[0,0.5],[1,0.5]];portConstraint=eastwest;" vertex="1" parent="o97dp3zMtjGvJsGJU-nK-93">
          <mxGeometry y="60" width="690" height="40" as="geometry" />
        </mxCell>
        <mxCell id="o97dp3zMtjGvJsGJU-nK-100" value="from_id" style="shape=partialRectangle;html=1;whiteSpace=wrap;connectable=0;strokeColor=inherit;overflow=hidden;fillColor=none;top=0;left=0;bottom=0;right=0;pointerEvents=1;" vertex="1" parent="o97dp3zMtjGvJsGJU-nK-99">
          <mxGeometry width="173" height="40" as="geometry">
            <mxRectangle width="173" height="40" as="alternateBounds" />
          </mxGeometry>
        </mxCell>
        <mxCell id="o97dp3zMtjGvJsGJU-nK-101" value="character varying(&lt;i style=&quot;border-color: var(--border-color);&quot;&gt;16&lt;/i&gt;)" style="shape=partialRectangle;html=1;whiteSpace=wrap;connectable=0;strokeColor=inherit;overflow=hidden;fillColor=none;top=0;left=0;bottom=0;right=0;pointerEvents=1;" vertex="1" parent="o97dp3zMtjGvJsGJU-nK-99">
          <mxGeometry x="173" width="172" height="40" as="geometry">
            <mxRectangle width="172" height="40" as="alternateBounds" />
          </mxGeometry>
        </mxCell>
        <mxCell id="o97dp3zMtjGvJsGJU-nK-102" value="" style="shape=partialRectangle;html=1;whiteSpace=wrap;connectable=0;strokeColor=inherit;overflow=hidden;fillColor=none;top=0;left=0;bottom=0;right=0;pointerEvents=1;" vertex="1" parent="o97dp3zMtjGvJsGJU-nK-99">
          <mxGeometry x="345" width="173" height="40" as="geometry">
            <mxRectangle width="173" height="40" as="alternateBounds" />
          </mxGeometry>
        </mxCell>
        <mxCell id="o97dp3zMtjGvJsGJU-nK-103" value="FK" style="shape=partialRectangle;html=1;whiteSpace=wrap;connectable=0;strokeColor=inherit;overflow=hidden;fillColor=none;top=0;left=0;bottom=0;right=0;pointerEvents=1;" vertex="1" parent="o97dp3zMtjGvJsGJU-nK-99">
          <mxGeometry x="518" width="172" height="40" as="geometry">
            <mxRectangle width="172" height="40" as="alternateBounds" />
          </mxGeometry>
        </mxCell>
        <mxCell id="o97dp3zMtjGvJsGJU-nK-104" value="" style="shape=tableRow;horizontal=0;startSize=0;swimlaneHead=0;swimlaneBody=0;strokeColor=inherit;top=0;left=0;bottom=0;right=0;collapsible=0;dropTarget=0;fillColor=none;points=[[0,0.5],[1,0.5]];portConstraint=eastwest;" vertex="1" parent="o97dp3zMtjGvJsGJU-nK-93">
          <mxGeometry y="100" width="690" height="40" as="geometry" />
        </mxCell>
        <mxCell id="o97dp3zMtjGvJsGJU-nK-105" value="to_id" style="shape=partialRectangle;html=1;whiteSpace=wrap;connectable=0;strokeColor=inherit;overflow=hidden;fillColor=none;top=0;left=0;bottom=0;right=0;pointerEvents=1;" vertex="1" parent="o97dp3zMtjGvJsGJU-nK-104">
          <mxGeometry width="173" height="40" as="geometry">
            <mxRectangle width="173" height="40" as="alternateBounds" />
          </mxGeometry>
        </mxCell>
        <mxCell id="o97dp3zMtjGvJsGJU-nK-106" value="character varying(&lt;i style=&quot;border-color: var(--border-color);&quot;&gt;16&lt;/i&gt;)" style="shape=partialRectangle;html=1;whiteSpace=wrap;connectable=0;strokeColor=inherit;overflow=hidden;fillColor=none;top=0;left=0;bottom=0;right=0;pointerEvents=1;" vertex="1" parent="o97dp3zMtjGvJsGJU-nK-104">
          <mxGeometry x="173" width="172" height="40" as="geometry">
            <mxRectangle width="172" height="40" as="alternateBounds" />
          </mxGeometry>
        </mxCell>
        <mxCell id="o97dp3zMtjGvJsGJU-nK-107" value="" style="shape=partialRectangle;html=1;whiteSpace=wrap;connectable=0;strokeColor=inherit;overflow=hidden;fillColor=none;top=0;left=0;bottom=0;right=0;pointerEvents=1;" vertex="1" parent="o97dp3zMtjGvJsGJU-nK-104">
          <mxGeometry x="345" width="173" height="40" as="geometry">
            <mxRectangle width="173" height="40" as="alternateBounds" />
          </mxGeometry>
        </mxCell>
        <mxCell id="o97dp3zMtjGvJsGJU-nK-108" value="FK" style="shape=partialRectangle;html=1;whiteSpace=wrap;connectable=0;strokeColor=inherit;overflow=hidden;fillColor=none;top=0;left=0;bottom=0;right=0;pointerEvents=1;" vertex="1" parent="o97dp3zMtjGvJsGJU-nK-104">
          <mxGeometry x="518" width="172" height="40" as="geometry">
            <mxRectangle width="172" height="40" as="alternateBounds" />
          </mxGeometry>
        </mxCell>
        <mxCell id="o97dp3zMtjGvJsGJU-nK-114" style="shape=tableRow;horizontal=0;startSize=0;swimlaneHead=0;swimlaneBody=0;strokeColor=inherit;top=0;left=0;bottom=0;right=0;collapsible=0;dropTarget=0;fillColor=none;points=[[0,0.5],[1,0.5]];portConstraint=eastwest;" vertex="1" parent="o97dp3zMtjGvJsGJU-nK-93">
          <mxGeometry y="140" width="690" height="40" as="geometry" />
        </mxCell>
        <mxCell id="o97dp3zMtjGvJsGJU-nK-115" style="shape=partialRectangle;html=1;whiteSpace=wrap;connectable=0;strokeColor=inherit;overflow=hidden;fillColor=none;top=0;left=0;bottom=0;right=0;pointerEvents=1;" vertex="1" parent="o97dp3zMtjGvJsGJU-nK-114">
          <mxGeometry width="173" height="40" as="geometry">
            <mxRectangle width="173" height="40" as="alternateBounds" />
          </mxGeometry>
        </mxCell>
        <mxCell id="o97dp3zMtjGvJsGJU-nK-116" style="shape=partialRectangle;html=1;whiteSpace=wrap;connectable=0;strokeColor=inherit;overflow=hidden;fillColor=none;top=0;left=0;bottom=0;right=0;pointerEvents=1;" vertex="1" parent="o97dp3zMtjGvJsGJU-nK-114">
          <mxGeometry x="173" width="172" height="40" as="geometry">
            <mxRectangle width="172" height="40" as="alternateBounds" />
          </mxGeometry>
        </mxCell>
        <mxCell id="o97dp3zMtjGvJsGJU-nK-117" style="shape=partialRectangle;html=1;whiteSpace=wrap;connectable=0;strokeColor=inherit;overflow=hidden;fillColor=none;top=0;left=0;bottom=0;right=0;pointerEvents=1;" vertex="1" parent="o97dp3zMtjGvJsGJU-nK-114">
          <mxGeometry x="345" width="173" height="40" as="geometry">
            <mxRectangle width="173" height="40" as="alternateBounds" />
          </mxGeometry>
        </mxCell>
        <mxCell id="o97dp3zMtjGvJsGJU-nK-118" style="shape=partialRectangle;html=1;whiteSpace=wrap;connectable=0;strokeColor=inherit;overflow=hidden;fillColor=none;top=0;left=0;bottom=0;right=0;pointerEvents=1;" vertex="1" parent="o97dp3zMtjGvJsGJU-nK-114">
          <mxGeometry x="518" width="172" height="40" as="geometry">
            <mxRectangle width="172" height="40" as="alternateBounds" />
          </mxGeometry>
        </mxCell>
      </root>
    </mxGraphModel>
  </diagram>
</mxfile>
